<svg xmlns="http://www.w3.org/2000/svg"><path d="M117.54 5.68459C118.241 5.68459 118.809 6.25067 118.809 6.94897V21.7214C118.809 22.4197 118.241 22.9858 117.54 22.9858C116.839 22.9858 116.271 22.4197 116.271 21.7214V6.94897C116.271 6.25067 116.839 5.68459 117.54 5.68459Z" fill="#DB2777"></path><path d="M123.641 22.9858C122.94 22.9858 122.372 22.4197 122.372 21.7214V11.2743C122.372 10.576 122.94 10.0099 123.641 10.0099C124.342 10.0099 124.91 10.576 124.91 11.2743V21.7214C124.91 22.4197 124.342 22.9858 123.641 22.9858ZM123.654 8.00775C123.212 8.00775 122.833 7.86132 122.516 7.56846C122.205 7.26997 122.05 6.91516 122.05 6.50403C122.05 6.08727 122.205 5.73246 122.516 5.4396C122.833 5.14111 123.212 4.99187 123.654 4.99187C124.095 4.99187 124.471 5.14111 124.783 5.4396C125.099 5.73246 125.258 6.08727 125.258 6.50403C125.258 6.91516 125.099 7.26997 124.783 7.56846C124.471 7.86132 124.095 8.00775 123.654 8.00775Z" fill="#DB2777"></path><path d="M131.011 15.2813V21.7214C131.011 22.4197 130.443 22.9858 129.742 22.9858C129.041 22.9858 128.473 22.4197 128.473 21.7214V11.2235C128.473 10.5532 129.018 10.0099 129.691 10.0099H129.849C130.435 10.0099 130.909 10.4827 130.909 11.0659V12.0248C130.909 12.0784 130.953 12.1218 131.006 12.1218C131.045 12.1218 131.08 12.0989 131.096 12.0637C131.397 11.4035 131.858 10.871 132.479 10.4661C133.124 10.0493 133.936 9.84093 134.915 9.84093C135.803 9.84093 136.581 10.0268 137.249 10.3985C137.917 10.7646 138.434 11.3109 138.802 12.0374C139.17 12.7639 139.354 13.6622 139.354 14.7322V21.7214C139.354 22.4197 138.786 22.9858 138.085 22.9858C137.384 22.9858 136.816 22.4197 136.816 21.7214V15.0363C136.816 14.0958 136.57 13.3609 136.078 12.8315C135.586 12.2964 134.909 12.0289 134.049 12.0289C133.461 12.0289 132.938 12.1556 132.479 12.4091C132.027 12.6625 131.667 13.0342 131.401 13.5242C131.141 14.0085 131.011 14.5942 131.011 15.2813Z" fill="#DB2777"></path><path d="M146.782 17.0499C146.21 17.6192 145.233 17.2186 145.229 16.4131L145.225 15.8087C145.224 15.639 145.362 15.501 145.532 15.501C145.617 15.501 145.698 15.4662 145.756 15.4049L150.532 10.3555C150.741 10.1349 151.032 10.0099 151.336 10.0099C152.305 10.0099 152.804 11.1641 152.139 11.8659L148.113 16.1138C148.024 16.208 147.9 16.2613 147.77 16.2613C147.645 16.2613 147.525 16.3108 147.436 16.3989L146.782 17.0499ZM144.175 22.9858C143.475 22.9858 142.907 22.4197 142.907 21.7214V6.94897C142.907 6.25067 143.475 5.68459 144.175 5.68459C144.876 5.68459 145.444 6.25067 145.444 6.94897V21.7214C145.444 22.4197 144.876 22.9858 144.175 22.9858ZM151.757 22.9858C151.368 22.9858 151.001 22.8037 150.767 22.4941L147.113 17.6663C146.744 17.1796 146.79 16.4972 147.219 16.0633C147.747 15.5305 148.626 15.5875 149.08 16.184L152.746 21.0031C153.365 21.8171 152.782 22.9858 151.757 22.9858Z" fill="#DB2777"></path><path d="M44.562 22.9599C43.2677 22.9599 42.1534 22.6681 41.219 22.0845C40.2903 21.4952 39.5764 20.6835 39.0773 19.6493C38.5782 18.6151 38.3286 17.4307 38.3286 16.096C38.3286 14.7441 38.584 13.551 39.0947 12.5168C39.6055 11.4768 40.3252 10.665 41.2538 10.0815C42.1824 9.49796 43.2764 9.20619 44.5359 9.20619C45.5516 9.20619 46.457 9.39397 47.2521 9.76951C48.0473 10.1393 48.6886 10.6593 49.1761 11.3295C49.3893 11.619 49.565 11.9296 49.7034 12.2612C50.0053 12.9846 49.3716 13.6781 48.5854 13.6781C47.9641 13.6781 47.4527 13.2249 47.1148 12.7053C46.9656 12.4758 46.7821 12.2627 46.5644 12.0661C46.071 11.6155 45.4094 11.3901 44.5794 11.3901C43.8539 11.3901 43.2184 11.5808 42.6728 11.9621C42.1331 12.3377 41.7123 12.875 41.4105 13.5741C41.1087 14.2674 40.9578 15.0878 40.9578 16.0354C40.9578 17.006 41.1058 17.8438 41.4018 18.5486C41.6978 19.2535 42.1157 19.7995 42.6554 20.1866C43.201 20.5737 43.8423 20.7672 44.5794 20.7672C45.0728 20.7672 45.5197 20.6777 45.9201 20.4986C46.3264 20.3137 46.6659 20.0508 46.9387 19.7099C47.0061 19.6274 47.0686 19.5409 47.1262 19.4503C47.4569 18.9296 47.9604 18.4793 48.5788 18.4793C49.3675 18.4793 49.9996 19.1759 49.6963 19.9013C49.5666 20.2114 49.4048 20.5058 49.211 20.7846C48.7408 21.4606 48.1111 21.9921 47.3218 22.3792C46.5383 22.7663 45.6183 22.9599 44.562 22.9599Z" fill="#3C2245"></path><path d="M56.8839 22.9859C56.0365 22.9859 55.2704 22.8299 54.5855 22.5179C53.9007 22.2001 53.358 21.7408 52.9575 21.1399C52.5629 20.539 52.3655 19.8024 52.3655 18.93C52.3655 18.1789 52.5106 17.5607 52.8008 17.0753C53.091 16.59 53.4828 16.2058 53.9761 15.9227C54.4695 15.6396 55.0208 15.4258 55.6302 15.2814C56.2397 15.1369 56.8607 15.0272 57.4933 14.952C58.2943 14.8596 58.9443 14.7845 59.4434 14.7267C59.9426 14.6632 60.3053 14.5621 60.5317 14.4234C60.758 14.2847 60.8712 14.0594 60.8712 13.7474V13.6867C60.8712 12.9299 60.6564 12.3434 60.227 11.9275C59.8033 11.5115 59.1706 11.3035 58.3291 11.3035C57.4527 11.3035 56.762 11.497 56.2571 11.8841C56.094 12.0087 55.9474 12.1379 55.8171 12.2717C55.3845 12.7163 54.7765 13.0573 54.1705 12.9199C53.4282 12.7516 52.9836 11.9557 53.4254 11.3379C53.6096 11.0805 53.8164 10.8494 54.0458 10.6448C54.6088 10.1422 55.2559 9.77818 55.9872 9.55285C56.7185 9.32174 57.4875 9.20619 58.2943 9.20619C58.8282 9.20619 59.3941 9.26975 59.9919 9.39685C60.5955 9.51818 61.1585 9.74351 61.6808 10.0728C62.209 10.4022 62.6414 10.873 62.978 11.4855C63.3146 12.0921 63.483 12.8808 63.483 13.8514V21.4246C63.483 22.1241 62.9139 22.6912 62.2119 22.6912H61.854C61.3497 22.6912 60.9408 22.2838 60.9408 21.7812V20.9356C60.9408 20.9 60.9119 20.8712 60.8763 20.8712C60.8518 20.8712 60.8295 20.885 60.8183 20.9066C60.6502 21.2295 60.4037 21.5471 60.079 21.8592C59.7423 22.1828 59.3099 22.4514 58.7818 22.6652C58.2536 22.879 57.621 22.9859 56.8839 22.9859ZM57.4498 20.9059C58.1695 20.9059 58.7847 20.7644 59.2954 20.4812C59.812 20.1981 60.2037 19.8284 60.4707 19.3719C60.7435 18.9097 60.8799 18.4157 60.8799 17.89V16.7764C60.8799 16.554 60.5537 16.3693 60.3401 16.434C60.079 16.5091 59.7801 16.5756 59.4434 16.6333C59.1068 16.6853 58.7789 16.7345 58.4597 16.7807C58.1404 16.8211 57.8735 16.8558 57.6587 16.8847C57.1538 16.9482 56.6924 17.0551 56.2745 17.2053C55.8624 17.3555 55.5316 17.5722 55.282 17.8553C55.0382 18.1326 54.9164 18.5024 54.9164 18.9646C54.9164 19.6059 55.1543 20.0913 55.6302 20.4206C56.1062 20.7441 56.7127 20.9059 57.4498 20.9059Z" fill="#3C2245"></path><path d="M68.4048 22.6912C67.686 22.6912 67.1033 22.1105 67.1033 21.3942V10.6331C67.1033 9.94076 67.6665 9.37952 68.3613 9.37952H68.5583C69.1443 9.37952 69.6193 9.85289 69.6193 10.4368V11.4133C69.6193 11.4579 69.6556 11.4941 69.7004 11.4941C69.7352 11.4941 69.766 11.472 69.7777 11.4394C70.0245 10.7489 70.4476 10.2039 71.0471 9.80418C71.6681 9.38819 72.3704 9.18019 73.1539 9.18019C73.3164 9.18019 73.5079 9.18597 73.7285 9.19752C74.0334 9.21309 74.2595 9.4677 74.2595 9.77196V11.1558C74.2595 11.4391 73.9844 11.6607 73.7024 11.6241C73.4354 11.5837 73.1684 11.5635 72.9014 11.5635C72.2862 11.5635 71.7377 11.6935 71.256 11.9535C70.7801 12.2077 70.4028 12.563 70.1243 13.0194C69.8457 13.4701 69.7064 13.9843 69.7064 14.5621V21.3942C69.7064 22.1105 69.1236 22.6912 68.4048 22.6912Z" fill="#3C2245"></path><path d="M81.9499 22.9599C80.6324 22.9599 79.4977 22.6796 78.5459 22.1192C77.5999 21.553 76.8686 20.7586 76.352 19.7359C75.8413 18.7075 75.5859 17.5029 75.5859 16.122C75.5859 14.7585 75.8413 13.5568 76.352 12.5168C76.8686 11.4768 77.5882 10.665 78.5111 10.0815C79.4397 9.49796 80.525 9.20619 81.7671 9.20619C82.5216 9.20619 83.2529 9.33041 83.961 9.57885C84.669 9.82729 85.3046 10.2173 85.8675 10.7488C86.4305 11.2804 86.8745 11.9708 87.1995 12.8201C87.5246 13.6636 87.6871 14.6892 87.6871 15.8967C87.6871 16.404 87.2743 16.8153 86.7652 16.8153H78.0313C77.4933 16.8153 77.0572 16.3808 77.0572 15.8447C77.0572 15.3086 77.4933 14.8741 78.0313 14.8741H83.2524C84.2928 14.8741 85.2042 13.9796 84.7184 13.0628C84.4398 12.5312 84.048 12.1123 83.5431 11.8061C83.0439 11.4999 82.4577 11.3468 81.7845 11.3468C81.0532 11.3468 80.4148 11.5259 79.8692 11.8841C79.3294 12.2366 78.9115 12.6988 78.6155 13.2708C78.3253 13.837 78.1802 14.4523 78.1802 15.1167V16.6333C78.1802 17.5231 78.337 18.28 78.6504 18.904C78.9696 19.5279 79.4136 20.0046 79.9824 20.3339C80.5511 20.6575 81.2157 20.8192 81.976 20.8192C82.4693 20.8192 82.9192 20.7499 83.3254 20.6112C83.7317 20.4668 84.0828 20.253 84.3788 19.9699C84.422 19.9287 84.4636 19.886 84.5038 19.8419C84.9259 19.3789 85.5067 19.0018 86.1246 19.1126C86.8755 19.2474 87.3628 20.0133 86.9442 20.649C86.8024 20.8644 86.6408 21.0684 86.4595 21.2612C85.9546 21.7985 85.3191 22.2174 84.553 22.5179C83.7926 22.8125 82.9249 22.9599 81.9499 22.9599Z" fill="#3C2245"></path><path d="M96.4918 22.9599C95.1743 22.9599 94.0396 22.6796 93.0878 22.1192C92.1417 21.553 91.4104 20.7586 90.8939 19.7359C90.3831 18.7075 90.1278 17.5029 90.1278 16.122C90.1278 14.7585 90.3831 13.5568 90.8939 12.5168C91.4104 11.4768 92.1301 10.665 93.053 10.0815C93.9816 9.49796 95.0669 9.20619 96.309 9.20619C97.0635 9.20619 97.7948 9.33041 98.5028 9.57885C99.2109 9.82729 99.8464 10.2173 100.409 10.7488C100.972 11.2804 101.416 11.9708 101.741 12.8201C102.066 13.6636 102.229 14.6892 102.229 15.8967C102.229 16.404 101.816 16.8153 101.307 16.8153H92.5731C92.0352 16.8153 91.5991 16.3808 91.5991 15.8447C91.5991 15.3086 92.0352 14.8741 92.5731 14.8741H97.7943C98.8347 14.8741 99.746 13.9796 99.2602 13.0628C98.9817 12.5312 98.5899 12.1123 98.085 11.8061C97.5858 11.4999 96.9996 11.3468 96.3264 11.3468C95.5951 11.3468 94.9566 11.5259 94.4111 11.8841C93.8713 12.2366 93.4534 12.6988 93.1574 13.2708C92.8672 13.837 92.7221 14.4523 92.7221 15.1167V16.6333C92.7221 17.5231 92.8788 18.28 93.1922 18.904C93.5115 19.5279 93.9555 20.0046 94.5242 20.3339C95.093 20.6575 95.7576 20.8192 96.5179 20.8192C97.0112 20.8192 97.461 20.7499 97.8673 20.6112C98.2736 20.4668 98.6247 20.253 98.9207 19.9699C98.9639 19.9287 99.0055 19.886 99.0457 19.8419C99.4678 19.3789 100.049 19.0018 100.666 19.1126C101.417 19.2474 101.905 20.0133 101.486 20.649C101.344 20.8644 101.183 21.0684 101.001 21.2612C100.496 21.7985 99.861 22.2174 99.0948 22.5179C98.3345 22.8125 97.4668 22.9599 96.4918 22.9599Z" fill="#3C2245"></path><path d="M106.572 22.6912C105.853 22.6912 105.27 22.1105 105.27 21.3942V10.6331C105.27 9.94077 105.834 9.37952 106.528 9.37952H106.725C107.311 9.37952 107.786 9.85289 107.786 10.4368V11.4133C107.786 11.4579 107.823 11.4941 107.867 11.4941C107.902 11.4941 107.933 11.472 107.945 11.4394C108.192 10.7489 108.615 10.2039 109.214 9.80418C109.835 9.38819 110.537 9.18019 111.321 9.18019C111.483 9.18019 111.675 9.18597 111.896 9.19752C112.2 9.21309 112.427 9.46771 112.427 9.77196V11.1558C112.427 11.4391 112.151 11.6607 111.869 11.6241C111.602 11.5837 111.335 11.5635 111.068 11.5635C110.453 11.5635 109.905 11.6935 109.423 11.9535C108.947 12.2077 108.57 12.563 108.291 13.0194C108.013 13.4701 107.873 13.9843 107.873 14.5621V21.3942C107.873 22.1105 107.291 22.6912 106.572 22.6912Z" fill="#3C2245"></path><path d="M16.1714 26.2534C10.52 26.2534 5.93867 21.6896 5.93867 16.06C5.93867 10.4302 10.52 5.86648 16.1714 5.86648C21.8227 5.86648 26.4041 10.4302 26.4041 16.06C26.4041 21.6896 21.8227 26.2534 16.1714 26.2534Z" fill="#DB2777"></path><path d="M16.0616 6.34704e-05C21.9921 -0.0168372 27.436 3.34277 30.2488 8.5011H27.2035C24.74 4.7947 20.4817 2.65815 16.0616 2.60248C8.63384 2.60248 2.61244 8.60079 2.61244 16C2.61244 23.3993 8.63384 29.3976 16.0616 29.3976C21.1398 29.4002 25.9423 26.4349 28.1508 21.8689L30.429 22.7416C27.9157 28.8958 22.7227 31.9159 16.0616 32C7.19098 32 0 24.8366 0 16C0 7.16347 7.19098 6.34704e-05 16.0616 6.34704e-05Z" fill="#DB2777"></path><path d="M30.9516 18.5517C29.5058 18.5517 28.3337 17.3841 28.3337 15.9439C28.3337 14.5036 29.5058 13.336 30.9516 13.336C32.3974 13.336 33.5695 14.5036 33.5695 15.9439C33.5695 17.3841 32.3974 18.5517 30.9516 18.5517Z" fill="#3C2245"></path><path d="M30.6368 24.3981L26.6368 23.0742L29.9557 19.8332" fill="#DB2777"></path><path d="M26.4937 8.60709L30.3811 6.98425L30.0202 11.5999" fill="#DB2777"></path></svg>